solid 
facet normal -1 -0 -0
 outer loop
  vertex 0 0 1.87
  vertex 0 0 2
  vertex 0 2 2
 endloop
endfacet
facet normal -1 0 0
 outer loop
  vertex 0 2 0
  vertex 0 0 0
  vertex 0 0 0.19999999
 endloop
endfacet
facet normal -1 -0 -0
 outer loop
  vertex 0 2 0
  vertex 0 0 0.19999999
  vertex 0 0.20000005 0.19999999
 endloop
endfacet
facet normal -1 0 -0
 outer loop
  vertex 0 0.21000004 1.87
  vertex 0 0 1.87
  vertex 0 2 2
 endloop
endfacet
facet normal -1 -0 -0
 outer loop
  vertex 0 0 0.59999996
  vertex 0 0 1.63
  vertex 0 0.21000004 1.63
 endloop
endfacet
facet normal -1 0 -0
 outer loop
  vertex 0 0.21000004 1.63
  vertex 0 0.21000004 1.87
  vertex 0 2 2
 endloop
endfacet
facet normal -1 0 0
 outer loop
  vertex 0 2 2
  vertex 0 2 0
  vertex 0 0.20000005 0.19999999
 endloop
endfacet
facet normal -1 0 -0
 outer loop
  vertex 0 0.20000005 0.59999996
  vertex 0 0 0.59999996
  vertex 0 0.21000004 1.63
 endloop
endfacet
facet normal -1 0 0
 outer loop
  vertex 0 2 2
  vertex 0 0.20000005 0.19999999
  vertex 0 0.20000005 0.59999996
 endloop
endfacet
facet normal -1 0 -0
 outer loop
  vertex 0 2 2
  vertex 0 0.20000005 0.59999996
  vertex 0 0.21000004 1.63
 endloop
endfacet
facet normal 0 1 0
 outer loop
  vertex 2 2 0.18999994
  vertex 2 2 0
  vertex 0 2 0
 endloop
endfacet
facet normal 0 1 -0
 outer loop
  vertex 0 2 2
  vertex 2 2 2
  vertex 2 2 1.85
 endloop
endfacet
facet normal 0 1 -0
 outer loop
  vertex 0 2 2
  vertex 2 2 1.85
  vertex 1.8 2 1.85
 endloop
endfacet
facet normal 0 1 -0
 outer loop
  vertex 1.79 2 0.18999994
  vertex 2 2 0.18999994
  vertex 0 2 0
 endloop
endfacet
facet normal 0 1 0
 outer loop
  vertex 2 2 1.65
  vertex 2 2 0.61
  vertex 1.79 2 0.61
 endloop
endfacet
facet normal 0 1 0
 outer loop
  vertex 1.79 2 0.61
  vertex 1.79 2 0.18999994
  vertex 0 2 0
 endloop
endfacet
facet normal 0 1 0
 outer loop
  vertex 0 2 0
  vertex 0 2 2
  vertex 1.8 2 1.85
 endloop
endfacet
facet normal 0 1 -0
 outer loop
  vertex 1.8 2 1.65
  vertex 2 2 1.65
  vertex 1.79 2 0.61
 endloop
endfacet
facet normal 0 1 -0
 outer loop
  vertex 0 2 0
  vertex 1.8 2 1.85
  vertex 1.8 2 1.65
 endloop
endfacet
facet normal 0 1 -0
 outer loop
  vertex 0 2 0
  vertex 1.8 2 1.65
  vertex 1.79 2 0.61
 endloop
endfacet
facet normal 1 0 0
 outer loop
  vertex 2 1.3899999 0.61
  vertex 2 2 0.61
  vertex 2 2 1.65
 endloop
endfacet
facet normal 1 -0 0
 outer loop
  vertex 2 1.3899999 0.61
  vertex 2 2 1.65
  vertex 2 1.9800001 1.65
 endloop
endfacet
facet normal 1 -0 0
 outer loop
  vertex 2 2 0
  vertex 2 2 0.18999994
  vertex 2 1.3899999 0.18999994
 endloop
endfacet
facet normal 1 0 0
 outer loop
  vertex 2 1.3899999 0.61
  vertex 2 1.9800001 1.65
  vertex 2 1.9800001 1.85
 endloop
endfacet
facet normal 1 0 0
 outer loop
  vertex 2 1.11 0
  vertex 2 2 0
  vertex 2 1.3899999 0.18999994
 endloop
endfacet
facet normal 1 0 0
 outer loop
  vertex 2 1.11 0
  vertex 2 1.3899999 0.18999994
  vertex 2 1.3899999 0.61
 endloop
endfacet
facet normal 1 0 -0
 outer loop
  vertex 2 1.11 0.20999992
  vertex 2 1.11 0
  vertex 2 1.3899999 0.61
 endloop
endfacet
facet normal 1 0 0
 outer loop
  vertex 2 1.9800001 1.85
  vertex 2 2 1.85
  vertex 2 2 2
 endloop
endfacet
facet normal 1 0 0
 outer loop
  vertex 2 1.11 0.20999992
  vertex 2 1.3899999 0.61
  vertex 2 1.9800001 1.85
 endloop
endfacet
facet normal 1 0 0
 outer loop
  vertex 2 0 0
  vertex 2 0.89 0
  vertex 2 0.89 0.20999992
 endloop
endfacet
facet normal 1 0 0
 outer loop
  vertex 2 0.89 0.20999992
  vertex 2 1.11 0.20999992
  vertex 2 1.9800001 1.85
 endloop
endfacet
facet normal 1 -0 0
 outer loop
  vertex 2 1.9800001 1.85
  vertex 2 2 2
  vertex 2 0 2
 endloop
endfacet
facet normal 1 0 -0
 outer loop
  vertex 2 0 2
  vertex 2 0 0
  vertex 2 0.89 0.20999992
 endloop
endfacet
facet normal 1 -0 -0
 outer loop
  vertex 2 1.9800001 1.85
  vertex 2 0 2
  vertex 2 0.89 0.20999992
 endloop
endfacet
facet normal 1 0 0
 outer loop
  vertex 2 2 1.85
  vertex 2 1.9800001 1.85
  vertex 2 1.9800001 1.65
 endloop
endfacet
facet normal 1 0 -0
 outer loop
  vertex 2 2 1.85
  vertex 2 1.9800001 1.65
  vertex 2 2 1.65
 endloop
endfacet
facet normal 0 -1 0
 outer loop
  vertex 0.80999994 0 1.63
  vertex 0 0 1.63
  vertex 0 0 0.59999996
 endloop
endfacet
facet normal 0 -1 0
 outer loop
  vertex 0 0 0.19999999
  vertex 0 0 0
  vertex 0.9 0 0
 endloop
endfacet
facet normal 0 -1 0
 outer loop
  vertex 0.80999994 0 1.63
  vertex 0 0 0.59999996
  vertex 0 0 0.19999999
 endloop
endfacet
facet normal 0 -1 0
 outer loop
  vertex 0 0 2
  vertex 0 0 1.87
  vertex 0.80999994 0 1.87
 endloop
endfacet
facet normal 0 -1 0
 outer loop
  vertex 0.80999994 0 1.63
  vertex 0 0 0.19999999
  vertex 0.9 0 0
 endloop
endfacet
facet normal 0 -1 0
 outer loop
  vertex 2 0 2
  vertex 0 0 2
  vertex 0.80999994 0 1.87
 endloop
endfacet
facet normal 0 -1 0
 outer loop
  vertex 0.80999994 0 1.87
  vertex 0.80999994 0 1.63
  vertex 0.9 0 0
 endloop
endfacet
facet normal -0 -1 -0
 outer loop
  vertex 1.1 0 0
  vertex 2 0 0
  vertex 2 0 2
 endloop
endfacet
facet normal 0 -1 0
 outer loop
  vertex 0.80999994 0 1.87
  vertex 0.9 0 0
  vertex 1.1 0 0
 endloop
endfacet
facet normal 0 -1 -0
 outer loop
  vertex 1.1 0 0
  vertex 2 0 2
  vertex 0.80999994 0 1.87
 endloop
endfacet
facet normal 0 0 -1
 outer loop
  vertex 2 0.89 0
  vertex 2 0 0
  vertex 1.1 0 0
 endloop
endfacet
facet normal 0 0 -1
 outer loop
  vertex 2 0.89 0
  vertex 1.1 0 0
  vertex 1.1 0.22000003 0
 endloop
endfacet
facet normal 0 0 -1
 outer loop
  vertex 1.7899998 0.89 0
  vertex 2 0.89 0
  vertex 1.1 0.22000003 0
 endloop
endfacet
facet normal 0 0 -1
 outer loop
  vertex 0.9 0.22000003 0
  vertex 0.9 0 0
  vertex 0 0 0
 endloop
endfacet
facet normal 0 0 -1
 outer loop
  vertex 1.7899998 0.89 0
  vertex 1.1 0.22000003 0
  vertex 0.9 0.22000003 0
 endloop
endfacet
facet normal 0 0 -1
 outer loop
  vertex 2 2 0
  vertex 2 1.11 0
  vertex 1.7899998 1.11 0
 endloop
endfacet
facet normal 0 0 -1
 outer loop
  vertex 1.7899998 1.11 0
  vertex 1.7899998 0.89 0
  vertex 0.9 0.22000003 0
 endloop
endfacet
facet normal 0 0 -1
 outer loop
  vertex 0.9 0.22000003 0
  vertex 0 0 0
  vertex 0 2 0
 endloop
endfacet
facet normal 0 0 -1
 outer loop
  vertex 0 2 0
  vertex 2 2 0
  vertex 1.7899998 1.11 0
 endloop
endfacet
facet normal -0 -0 -1
 outer loop
  vertex 0.9 0.22000003 0
  vertex 0 2 0
  vertex 1.7899998 1.11 0
 endloop
endfacet
facet normal 0 0 1
 outer loop
  vertex 2 2 2
  vertex 0 2 2
  vertex 0 0 2
 endloop
endfacet
facet normal 0 -0 1
 outer loop
  vertex 2 2 2
  vertex 0 0 2
  vertex 2 0 2
 endloop
endfacet
facet normal -1 0 0
 outer loop
  vertex 1.8 2 1.85
  vertex 1.8 2.8000002 1.85
  vertex 1.8 2.8000002 1.65
 endloop
endfacet
facet normal -1 0 0
 outer loop
  vertex 1.8 2 1.85
  vertex 1.8 2.8000002 1.65
  vertex 1.8 2 1.65
 endloop
endfacet
facet normal 0 1 0
 outer loop
  vertex 1.8 2.8000002 1.65
  vertex 1.8 2.8000002 1.85
  vertex 2 2.8000002 1.85
 endloop
endfacet
facet normal 0 1 -0
 outer loop
  vertex 1.8 2.8000002 1.65
  vertex 2 2.8000002 1.85
  vertex 2 2.8000002 1.65
 endloop
endfacet
facet normal 1 0 0
 outer loop
  vertex 2 2 1.65
  vertex 2 2.8000002 1.65
  vertex 2 2.8000002 1.85
 endloop
endfacet
facet normal 1 -0 0
 outer loop
  vertex 2 2 1.65
  vertex 2 2.8000002 1.85
  vertex 2 2 1.85
 endloop
endfacet
facet normal -0 -0 -1
 outer loop
  vertex 1.8 2 1.65
  vertex 1.8 2.8000002 1.65
  vertex 2 2.8000002 1.65
 endloop
endfacet
facet normal -0 0 -1
 outer loop
  vertex 1.8 2 1.65
  vertex 2 2.8000002 1.65
  vertex 2 2 1.65
 endloop
endfacet
facet normal -0 0 1
 outer loop
  vertex 2 2 1.85
  vertex 2 2.8000002 1.85
  vertex 1.8 2.8000002 1.85
 endloop
endfacet
facet normal -0 0 1
 outer loop
  vertex 2 2 1.85
  vertex 1.8 2.8000002 1.85
  vertex 1.8 2 1.85
 endloop
endfacet
facet normal -1 0 0
 outer loop
  vertex 0.9 0.22000003 -0.20000005
  vertex 0.9 0 -0.20000005
  vertex 0.9 0 0
 endloop
endfacet
facet normal -1 -0 -0
 outer loop
  vertex 0.9 0.22000003 -0.20000005
  vertex 0.9 0 0
  vertex 0.9 0.22000003 0
 endloop
endfacet
facet normal 1 0 0
 outer loop
  vertex 1.1 0.22000003 0
  vertex 1.1 0 0
  vertex 1.1 0 -0.20000005
 endloop
endfacet
facet normal 1 0 -0
 outer loop
  vertex 1.1 0.22000003 0
  vertex 1.1 0 -0.20000005
  vertex 1.1 0.22000003 -0.20000005
 endloop
endfacet
facet normal 0 0 -1
 outer loop
  vertex 1.1 0.22000003 -0.20000005
  vertex 1.1 0 -0.20000005
  vertex 0.9 0 -0.20000005
 endloop
endfacet
facet normal 0 0 -1
 outer loop
  vertex 1.1 0.22000003 -0.20000005
  vertex 0.9 0 -0.20000005
  vertex 0.9 0.22000003 -0.20000005
 endloop
endfacet
facet normal 0 1 -0
 outer loop
  vertex 0.9 0.22000003 0
  vertex 1.1 0.22000003 0
  vertex 1.1 0.22000003 -0.20000005
 endloop
endfacet
facet normal 0 1 -0
 outer loop
  vertex 0.9 0.22000003 0
  vertex 1.1 0.22000003 -0.20000005
  vertex 0.9 0.22000003 -0.20000005
 endloop
endfacet
facet normal 0 -1 0
 outer loop
  vertex 1.1 0 0
  vertex 0.9 0 0
  vertex 0.9 0 -0.20000005
 endloop
endfacet
facet normal 0 -1 0
 outer loop
  vertex 1.1 0 0
  vertex 0.9 0 -0.20000005
  vertex 1.1 0 -0.20000005
 endloop
endfacet
facet normal 0 -1 0
 outer loop
  vertex 0 0 0.19999999
  vertex 0 0 0.59999996
  vertex -0.60000014 0 0.59999996
 endloop
endfacet
facet normal 0 -1 0
 outer loop
  vertex 0 0 0.19999999
  vertex -0.60000014 0 0.59999996
  vertex -0.60000014 0 0.19999999
 endloop
endfacet
facet normal -1 -0 -0
 outer loop
  vertex -0.60000014 0 0.19999999
  vertex -0.60000014 0 0.59999996
  vertex -0.60000014 0.20000005 0.59999996
 endloop
endfacet
facet normal -1 -0 0
 outer loop
  vertex -0.60000014 0 0.19999999
  vertex -0.60000014 0.20000005 0.59999996
  vertex -0.60000014 0.20000005 0.19999999
 endloop
endfacet
facet normal 0 1 0
 outer loop
  vertex -0.60000014 0.20000005 0.19999999
  vertex -0.60000014 0.20000005 0.59999996
  vertex 0 0.20000005 0.59999996
 endloop
endfacet
facet normal 0 1 -0
 outer loop
  vertex -0.60000014 0.20000005 0.19999999
  vertex 0 0.20000005 0.59999996
  vertex 0 0.20000005 0.19999999
 endloop
endfacet
facet normal -0 -0 -1
 outer loop
  vertex -0.60000014 0 0.19999999
  vertex -0.60000014 0.20000005 0.19999999
  vertex 0 0.20000005 0.19999999
 endloop
endfacet
facet normal -0 0 -1
 outer loop
  vertex -0.60000014 0 0.19999999
  vertex 0 0.20000005 0.19999999
  vertex 0 0 0.19999999
 endloop
endfacet
facet normal 0 -0 1
 outer loop
  vertex -0.60000014 0.20000005 0.59999996
  vertex -0.60000014 0 0.59999996
  vertex 0 0 0.59999996
 endloop
endfacet
facet normal 0 0 1
 outer loop
  vertex -0.60000014 0.20000005 0.59999996
  vertex 0 0 0.59999996
  vertex 0 0.20000005 0.59999996
 endloop
endfacet
facet normal 0 -1 0
 outer loop
  vertex 0.80999994 0.21000004 1.63
  vertex 0.80999994 0.21000004 1.87
  vertex 0 0.21000004 1.87
 endloop
endfacet
facet normal 0 -1 0
 outer loop
  vertex 0.80999994 0.21000004 1.63
  vertex 0 0.21000004 1.87
  vertex 0 0.21000004 1.63
 endloop
endfacet
facet normal -1 0 0
 outer loop
  vertex 0.80999994 0.21000004 1.87
  vertex 0.80999994 0.21000004 1.63
  vertex 0.80999994 0 1.63
 endloop
endfacet
facet normal -1 0 0
 outer loop
  vertex 0.80999994 0.21000004 1.87
  vertex 0.80999994 0 1.63
  vertex 0.80999994 0 1.87
 endloop
endfacet
facet normal -0 0 1
 outer loop
  vertex 0.80999994 0 1.63
  vertex 0.80999994 0.21000004 1.63
  vertex 0 0.21000004 1.63
 endloop
endfacet
facet normal -0 0 1
 outer loop
  vertex 0.80999994 0 1.63
  vertex 0 0.21000004 1.63
  vertex 0 0 1.63
 endloop
endfacet
facet normal -0 -0 -1
 outer loop
  vertex 0 0 1.87
  vertex 0 0.21000004 1.87
  vertex 0.80999994 0.21000004 1.87
 endloop
endfacet
facet normal -0 0 -1
 outer loop
  vertex 0 0 1.87
  vertex 0.80999994 0.21000004 1.87
  vertex 0.80999994 0 1.87
 endloop
endfacet
facet normal 1 -0 0
 outer loop
  vertex 1.7899998 1.11 0
  vertex 1.7899998 1.11 0.20999992
  vertex 1.7899998 0.89 0.20999992
 endloop
endfacet
facet normal 1 -0 0
 outer loop
  vertex 1.7899998 1.11 0
  vertex 1.7899998 0.89 0.20999992
  vertex 1.7899998 0.89 0
 endloop
endfacet
facet normal 0 0 -1
 outer loop
  vertex 2 0.89 0.20999992
  vertex 1.7899998 0.89 0.20999992
  vertex 1.7899998 1.11 0.20999992
 endloop
endfacet
facet normal -0 -0 -1
 outer loop
  vertex 2 0.89 0.20999992
  vertex 1.7899998 1.11 0.20999992
  vertex 2 1.11 0.20999992
 endloop
endfacet
facet normal 0 -1 0
 outer loop
  vertex 1.7899998 1.11 0.20999992
  vertex 1.7899998 1.11 0
  vertex 2 1.11 0
 endloop
endfacet
facet normal -0 -1 -0
 outer loop
  vertex 1.7899998 1.11 0.20999992
  vertex 2 1.11 0
  vertex 2 1.11 0.20999992
 endloop
endfacet
facet normal 0 1 -0
 outer loop
  vertex 1.7899998 0.89 0.20999992
  vertex 2 0.89 0.20999992
  vertex 2 0.89 0
 endloop
endfacet
facet normal 0 1 -0
 outer loop
  vertex 1.7899998 0.89 0.20999992
  vertex 2 0.89 0
  vertex 1.7899998 0.89 0
 endloop
endfacet
facet normal 1 0 0
 outer loop
  vertex 1.79 2 0.61
  vertex 1.79 1.3899999 0.61
  vertex 1.79 1.3899999 0.18999994
 endloop
endfacet
facet normal 1 0 -0
 outer loop
  vertex 1.79 2 0.61
  vertex 1.79 1.3899999 0.18999994
  vertex 1.79 2 0.18999994
 endloop
endfacet
facet normal -0 1 0
 outer loop
  vertex 2 1.3899999 0.18999994
  vertex 1.79 1.3899999 0.18999994
  vertex 1.79 1.3899999 0.61
 endloop
endfacet
facet normal 0 1 0
 outer loop
  vertex 2 1.3899999 0.18999994
  vertex 1.79 1.3899999 0.61
  vertex 2 1.3899999 0.61
 endloop
endfacet
facet normal 0 0 1
 outer loop
  vertex 2 2 0.18999994
  vertex 1.79 2 0.18999994
  vertex 1.79 1.3899999 0.18999994
 endloop
endfacet
facet normal 0 -0 1
 outer loop
  vertex 2 2 0.18999994
  vertex 1.79 1.3899999 0.18999994
  vertex 2 1.3899999 0.18999994
 endloop
endfacet
facet normal -0 -0 -1
 outer loop
  vertex 1.79 1.3899999 0.61
  vertex 1.79 2 0.61
  vertex 2 2 0.61
 endloop
endfacet
facet normal -0 0 -1
 outer loop
  vertex 1.79 1.3899999 0.61
  vertex 2 2 0.61
  vertex 2 1.3899999 0.61
 endloop
endfacet
endsolid 
